<?xml version="1.0" encoding="iso-8859-1"?>
<!-- Generator: Adobe Illustrator 19.0.0, SVG Export Plug-In . SVG Version: 6.00 Build 0)  -->
<svg version="1.1" id="Layer_1" xmlns="http://www.w3.org/2000/svg" xmlns:xlink="http://www.w3.org/1999/xlink" x="0px" y="0px"
	 viewBox="0 0 512 512" style="enable-background:new 0 0 512 512;" xml:space="preserve">
<path style="fill:#F7EEDF;" d="M269.137,170.016c0,8.141-6.578,14.74-14.692,14.74H70.306c-8.113,0-14.692-6.6-14.692-14.74V150.36
	c0-8.142,6.58-14.741,14.692-14.741h184.139c8.115,0,14.692,6.6,14.692,14.741v19.657H269.137z"/>
<path style="fill:#EF645E;" d="M91.855,504.163c-7.59,0-13.875-5.717-14.62-13.294L47.852,192.103
	c-0.406-4.134,0.953-8.269,3.732-11.348c2.779-3.077,6.747-4.843,10.888-4.843H262.28c4.141,0,8.108,1.765,10.888,4.843
	c2.779,3.078,4.141,7.214,3.732,11.348L247.517,490.87c-0.745,7.578-7.031,13.294-14.62,13.294H91.855V504.163z"/>
<path style="fill:#C14616;" d="M74.041,458.381l3.194,32.489c0.745,7.578,7.031,13.294,14.62,13.294h141.04
	c7.59,0,13.875-5.717,14.62-13.294l3.196-32.489H74.041z"/>
<path style="opacity:0.1;enable-background:new    ;" d="M110.013,490.869L80.629,192.103c-0.406-4.134,0.953-8.269,3.732-11.348
	c2.779-3.077,6.747-4.843,10.888-4.843H62.472c-4.141,0-8.108,1.765-10.888,4.843s-4.139,7.214-3.732,11.348L77.235,490.87
	c0.745,7.578,7.031,13.294,14.62,13.294h32.777C117.044,504.163,110.758,498.447,110.013,490.869z"/>
<polygon style="fill:#C69C6D;" points="54.976,384.263 269.137,384.263 276.56,294.743 48.192,294.743 "/>
<g>
	<path style="fill:#8C6239;" d="M65.882,295.335l6.739,88.929H88.31c-0.001-0.196,0-0.393-0.016-0.592l-6.739-88.928H65.867
		C65.868,294.939,65.867,295.136,65.882,295.335z"/>
	<path style="fill:#8C6239;" d="M241.305,294.743l-6.739,88.928c-0.016,0.2-0.015,0.396-0.016,0.592h15.689l6.739-88.929
		c0.016-0.199,0.015-0.396,0.016-0.591L241.305,294.743L241.305,294.743z"/>
</g>
<path style="opacity:0.1;enable-background:new    ;" d="M88.393,170.016V150.36c0-8.142,6.58-14.741,14.691-14.741H70.306
	c-8.113,0-14.692,6.6-14.692,14.741v19.657c0,8.141,6.58,14.74,14.692,14.74h32.777C94.972,184.757,88.393,178.157,88.393,170.016z"
	/>
<path style="fill:#F2D8A0;" d="M204.492,58.987h-58.328c-11.887,0-21.557-9.715-21.557-21.657s9.671-21.657,21.557-21.657h20.279
	c4.329,0,7.837-3.508,7.837-7.837S170.772,0,166.443,0h-20.279c-20.528,0-37.231,16.746-37.231,37.33s16.702,37.331,37.231,37.331
	h58.328c9.26,0,16.794,7.57,16.794,16.876v16.045c0,4.329,3.508,7.837,7.837,7.837c4.329,0,7.837-3.508,7.837-7.837V91.537
	C236.959,73.589,222.395,58.987,204.492,58.987z"/>
<path style="fill:#FCE9C3;" d="M201.158,46.78h-25.163c-4.329,0-7.837-3.508-7.837-7.837s3.508-7.837,7.837-7.837h25.163
	c4.255,0,7.717-3.462,7.717-7.717s-3.462-7.717-7.717-7.717h-11.577c-4.329,0-7.837-3.508-7.837-7.837S185.252,0,189.581,0h11.577
	c12.897,0,23.39,10.493,23.39,23.39C224.547,36.287,214.054,46.78,201.158,46.78z"/>
<ellipse style="fill:#FFFFFF;" cx="162.378" cy="334.106" rx="62.654" ry="62.861"/>
<path style="fill:#F7EEDF;" d="M299.501,195.568c0,8.142-6.578,14.741-14.692,14.741H39.944c-8.113,0-14.692-6.6-14.692-14.741
	v-11.793c0-8.142,6.58-14.742,14.692-14.742h244.865c8.115,0,14.692,6.601,14.692,14.742V195.568z"/>
<path style="opacity:0.1;enable-background:new    ;" d="M58.029,195.568v-11.793c0-8.142,6.58-14.742,14.692-14.742H39.944
	c-8.113,0-14.692,6.601-14.692,14.742v11.793c0,8.142,6.58,14.741,14.692,14.741h32.777C64.609,210.31,58.029,203.71,58.029,195.568
	z"/>
<path style="fill:#C14616;" d="M162.376,375.328c-22.666,0-41.106-18.491-41.106-41.219c0-22.729,18.439-41.219,41.106-41.219
	c22.667,0,41.108,18.491,41.108,41.219c0,4.329-3.508,7.837-7.837,7.837c-4.329,0-7.837-3.508-7.837-7.837
	c0-14.085-11.41-25.546-25.435-25.546c-14.024,0-25.433,11.46-25.433,25.546s11.409,25.546,25.433,25.546
	c4.329,0,7.837,3.508,7.837,7.837S166.705,375.328,162.376,375.328z"/>
<path style="fill:#A5D289;" d="M214.354,326.531v94.041c0,35.779,29.004,64.784,64.784,64.784h73.143
	c35.779,0,64.784-29.004,64.784-64.784v-94.041H214.354z"/>
<path style="opacity:0.1;enable-background:new    ;" d="M246.988,420.571v-94.041h-32.634v94.041
	c0,35.779,29.004,64.784,64.784,64.784h32.634C275.993,485.355,246.988,456.351,246.988,420.571z"/>
<g>
	<path style="fill:#79A85B;" d="M417.064,356.607v-15.222c-0.59-0.142-1.203-0.226-1.837-0.226H367.7
		c-4.329,0-7.837,3.508-7.837,7.837s3.508,7.837,7.837,7.837h47.526C415.86,356.833,416.474,356.749,417.064,356.607z"/>
	<path style="fill:#79A85B;" d="M417.064,381.684v-15.222c-0.59-0.142-1.203-0.226-1.837-0.226h-36.8
		c-4.329,0-7.837,3.508-7.837,7.837s3.508,7.837,7.837,7.837h36.8C415.86,381.91,416.474,381.827,417.064,381.684z"/>
</g>
<path style="fill:#78B591;" d="M220.029,504.163c-11.528,0-20.908-9.379-20.908-20.907c0-3.039,2.463-5.501,5.502-5.501h221.176
	c3.041,0,5.502,2.462,5.502,5.501c0,11.528-9.378,20.907-20.906,20.907H220.029z"/>
<path style="opacity:0.1;enable-background:new    ;" d="M242.417,483.256c0-3.039,2.463-5.501,5.502-5.501h-43.296
	c-3.039,0-5.502,2.462-5.502,5.501c0,11.528,9.38,20.907,20.908,20.907h43.296C251.797,504.163,242.417,494.784,242.417,483.256z"/>
<path d="M441.113,318.694h-52.41c-4.329,0-7.837,3.508-7.837,7.837c0,4.329,3.508,7.837,7.837,7.837h20.525v86.204
	c0,21.076-11.518,39.5-28.58,49.347H250.77c-17.062-9.847-28.58-28.272-28.58-49.347v-86.204h115.313h14.629
	c4.329,0,7.837-3.508,7.837-7.837c0-4.329-3.508-7.837-7.837-7.837h-14.629h-55.064l1.932-23.303
	c0.181-2.184-0.56-4.344-2.045-5.955c-1.484-1.612-3.575-2.53-5.766-2.53h-1.11l6.764-68.759h2.594
	c12.423,0,22.529-10.128,22.529-22.578v-11.793c0-12.45-10.106-22.579-22.529-22.579h-7.835v-10.836
	c0-12.45-10.106-22.578-22.529-22.578H70.306c-12.423,0-22.529,10.128-22.529,22.578v10.836h-7.835
	c-12.423,0-22.529,10.129-22.529,22.579v11.793c0,12.45,10.106,22.578,22.529,22.578h2.594l6.764,68.759h-1.109
	c-2.182,0-4.264,0.909-5.747,2.509c-1.483,1.599-2.233,3.745-2.068,5.919l6.783,89.521c0.309,4.087,3.717,7.245,7.815,7.245h4.671
	l9.79,99.536C70.577,503.245,80.216,512,91.855,512h318.539c15.849,0,28.743-12.895,28.743-28.744
	c0-7.354-5.984-13.338-13.339-13.338h-20.322c10.96-11.802,18.059-27.234,19.242-44.278h16.394
	c29.486,0,53.474-23.988,53.474-53.474C494.586,342.682,470.599,318.694,441.113,318.694z M214.802,286.906
	c-12.914-14.414-31.629-23.5-52.427-23.5c-20.796,0-39.511,9.085-52.425,23.5H65.049l-6.764-68.759h208.179l-6.764,68.759H214.802z
	 M214.981,318.694h-0.628c-4.329,0-7.837,3.508-7.837,7.837v40.151c-9.986,13.609-26.049,22.457-44.141,22.457
	c-30.226,0-54.816-24.686-54.816-55.03c0-30.344,24.591-55.03,54.816-55.03C187.272,279.08,208.325,295.833,214.981,318.694z
	 M266.711,318.694H231.15c-1.261-5.652-3.182-11.057-5.706-16.114h42.603L266.711,318.694z M39.944,202.473
	c-3.779,0-6.856-3.098-6.856-6.905v-11.793c0-3.809,3.075-6.906,6.856-6.906h54.097c4.329,0,7.837-3.508,7.837-7.837
	c0-4.329-3.508-7.837-7.837-7.837H63.452v-10.836c0-3.807,3.075-6.905,6.856-6.905h147.171c0.864,3.388,3.928,5.897,7.585,5.897
	h8.815c3.657,0,6.721-2.509,7.585-5.897h12.985c3.779,0,6.856,3.098,6.856,6.905v10.836H129.568c-4.329,0-7.837,3.508-7.837,7.837
	c0,4.329,3.508,7.837,7.837,7.837h155.24c3.779,0,6.856,3.098,6.856,6.906v11.793c0,3.808-3.075,6.905-6.856,6.905H39.944z
	 M62.241,376.427l-5.595-73.847h42.665c-4.741,9.5-7.424,20.204-7.424,31.53c0,15.857,5.233,30.51,14.055,42.317L62.241,376.427
	L62.241,376.427z M191.284,483.256c0,4.705,1.144,9.146,3.157,13.071H91.855c-3.54,0-6.472-2.675-6.821-6.224l-2.349-23.884h34.344
	c4.329,0,7.837-3.509,7.837-7.837c0-4.329-3.508-7.837-7.837-7.837H81.143L75.394,392.1h46.728
	c11.423,8.001,25.296,12.712,40.254,12.712c14.958,0,28.833-4.711,40.255-12.712h3.886v28.471c0,10.685,2.325,20.833,6.491,29.973
	h-60.452c-4.329,0-7.837,3.508-7.837,7.837c0,4.328,3.508,7.837,7.837,7.837h70.192c1.026,1.265,2.081,2.507,3.19,3.701h-21.315
	C197.268,469.919,191.284,475.902,191.284,483.256z M423.254,485.592c-1.103,6.096-6.45,10.734-12.86,10.734H220.029
	c-6.41,0-11.758-4.638-12.863-10.734H423.254z M441.113,409.968H424.9v-75.6h16.213c20.843,0,37.8,16.957,37.8,37.8
	C478.913,393.01,461.955,409.968,441.113,409.968z"/>
<g>
</g>
<g>
</g>
<g>
</g>
<g>
</g>
<g>
</g>
<g>
</g>
<g>
</g>
<g>
</g>
<g>
</g>
<g>
</g>
<g>
</g>
<g>
</g>
<g>
</g>
<g>
</g>
<g>
</g>
</svg>
